<?xml version="1.0" standalone="no"?>
<!DOCTYPE svg PUBLIC "-//W3C//DTD SVG 20010904//EN"
 "http://www.w3.org/TR/2001/REC-SVG-20010904/DTD/svg10.dtd">
<svg version="1.0" xmlns="http://www.w3.org/2000/svg"
 width="1400.000000pt" height="1400.000000pt" viewBox="0 0 1400.000000 1400.000000"
 preserveAspectRatio="xMidYMid meet">
<metadata>
Created by potrace 1.14, written by Peter Selinger 2001-2017
</metadata>
<g transform="translate(0.000000,1400.000000) scale(0.100000,-0.100000)"
fill="#000000" stroke="none">
<path d="M0 7000 l0 -7000 7000 0 7000 0 0 7000 0 7000 -7000 0 -7000 0 0
-7000z m5865 3535 c347 -15 1092 -131 1675 -261 150 -33 471 -111 535 -130 28
-7 140 -39 250 -70 110 -31 294 -88 410 -126 l210 -70 75 11 c318 47 693 41
972 -13 99 -20 234 -58 321 -90 37 -15 70 -26 72 -26 3 0 5 10 5 23 1 31 36
160 53 194 25 47 73 85 126 99 60 15 104 6 246 -51 347 -140 623 -369 839
-697 35 -52 46 -61 149 -112 346 -171 653 -470 894 -871 305 -508 541 -1215
643 -1928 18 -123 19 -154 9 -185 -19 -57 -306 -480 -364 -537 -94 -92 -218
-159 -345 -186 -84 -18 -283 -6 -485 30 -99 18 -270 48 -380 67 -429 74 -543
102 -672 161 -32 15 -62 29 -67 32 -23 10 19 -659 59 -943 51 -365 132 -670
226 -858 l28 -56 188 -4 c167 -3 192 -5 228 -24 121 -63 140 -246 34 -327 -61
-46 -93 -48 -574 -45 -413 3 -453 5 -483 21 -67 36 -341 298 -527 502 -336
368 -562 693 -779 1122 -1 1 -35 -6 -76 -16 l-74 -17 -83 -224 c-105 -285
-223 -579 -346 -862 l-55 -128 171 0 c95 0 187 -4 206 -10 93 -26 159 -119
148 -209 -3 -27 -15 -63 -26 -82 -26 -43 -93 -87 -144 -94 -23 -3 -287 -5
-587 -3 -543 3 -545 3 -587 25 -23 13 -56 43 -74 69 -64 94 -419 842 -563
1186 -60 146 -80 194 -141 353 -28 71 -83 239 -115 348 -27 92 -4 88 -210 33
-487 -130 -1119 -197 -1675 -177 l-120 5 -3 -45 c-3 -56 -38 -297 -58 -409
-47 -256 -130 -577 -215 -835 -27 -82 -49 -150 -49 -151 0 -2 89 -4 198 -6
194 -3 198 -3 244 -30 60 -36 89 -83 95 -156 6 -76 -24 -135 -92 -177 l-48
-30 -551 -3 c-586 -3 -652 1 -744 43 -65 30 -150 110 -185 173 -37 68 -46 119
-63 346 -23 327 -37 448 -101 889 -3 20 -9 37 -12 37 -4 0 -83 -84 -176 -186
-239 -262 -560 -570 -854 -819 l-94 -80 114 -6 c123 -6 159 -16 202 -57 43
-41 60 -81 60 -142 0 -65 -18 -105 -67 -148 -57 -50 -93 -55 -366 -49 -278 5
-310 11 -457 83 -140 69 -187 119 -486 517 -277 369 -295 399 -282 476 3 21
52 113 111 212 285 471 462 922 511 1297 18 140 16 198 -18 737 -15 234 -15
631 -1 770 57 551 247 1002 588 1395 94 109 321 334 439 436 768 664 1663
1029 2631 1073 183 8 229 8 509 -4z"/>
<path d="M5275 10144 c-956 -75 -1796 -470 -2511 -1181 -227 -225 -344 -380
-459 -608 -94 -185 -149 -355 -193 -595 -25 -140 -26 -157 -26 -510 1 -244 6
-435 17 -577 35 -447 16 -673 -88 -1018 -88 -292 -229 -609 -415 -933 l-70
-124 37 -51 c30 -42 338 -452 349 -466 2 -2 40 27 86 65 874 719 1514 1439
1849 2079 87 167 130 268 185 434 56 172 71 195 143 227 66 30 158 15 215 -35
32 -29 56 -88 56 -141 0 -94 -116 -408 -238 -645 -58 -112 -69 -94 93 -143
626 -188 1407 -203 2235 -41 140 27 327 74 421 105 l76 25 6 57 c21 229 183
709 265 786 89 83 248 53 301 -56 31 -64 27 -122 -13 -215 -100 -235 -176
-535 -176 -701 0 -155 106 -482 316 -974 79 -187 282 -623 376 -811 l78 -158
93 3 92 3 63 145 c345 792 574 1430 692 1924 17 71 37 141 45 157 36 68 142
112 218 89 85 -25 147 -102 147 -182 0 -41 -46 -248 -85 -382 -14 -49 -24 -90
-22 -92 6 -7 175 64 272 113 261 133 521 360 709 620 l37 52 -40 83 c-121 249
-193 547 -195 803 -1 131 0 142 22 173 78 109 227 122 310 27 39 -44 49 -80
57 -205 17 -286 111 -581 254 -795 60 -90 190 -222 266 -270 153 -97 250 -129
540 -180 110 -19 277 -48 370 -65 451 -79 486 -82 569 -53 73 26 123 80 242
258 90 134 107 166 105 195 -1 19 -18 118 -37 220 -179 947 -534 1703 -977
2078 l-87 74 -25 -30 c-29 -34 -103 -72 -141 -72 -88 0 -166 59 -198 150 -83
238 -211 438 -389 606 -82 78 -209 169 -293 212 l-42 21 -6 -22 c-3 -12 -11
-93 -17 -179 -17 -232 6 -511 57 -705 24 -89 16 -163 -23 -211 -46 -56 -88
-77 -159 -77 -50 0 -68 5 -103 28 -56 37 -75 72 -100 180 -48 215 -71 407 -71
600 l0 108 -85 40 c-111 51 -251 92 -411 120 -111 20 -163 23 -374 23 -136 0
-281 -6 -325 -12 -246 -37 -243 -37 -325 -7 -656 236 -1652 474 -2425 580
-368 50 -439 56 -755 59 -173 2 -337 2 -365 0z m7060 -2668 c115 -54 170 -161
145 -282 -15 -71 -61 -131 -130 -168 -158 -85 -348 18 -367 199 -20 189 181
332 352 251z"/>
<path d="M10540 5873 c-156 -174 -362 -338 -584 -464 -66 -38 -127 -72 -135
-77 -12 -7 -6 -25 33 -98 161 -298 362 -579 621 -869 113 -127 413 -425 428
-425 11 0 8 11 -22 90 -38 99 -100 332 -130 490 -69 356 -101 696 -119 1236
l-7 211 -85 -94z"/>
<path d="M3884 5529 l-62 -90 19 -82 c71 -318 128 -741 164 -1197 8 -107 15
-201 15 -207 0 -10 39 -13 159 -13 l159 0 22 63 c174 496 254 808 310 1211 27
187 26 214 -2 220 -13 3 -63 12 -113 21 -126 23 -339 79 -475 126 -64 21 -120
39 -125 39 -6 -1 -38 -41 -71 -91z"/>
</g>
</svg>
